Coordinates
version=1
nRows=9
nColumns=36
inDegrees=yes

Units are S.I. units (second, meters, Newtons, ...)
If the header above contains a line with 'inDegrees', this indicates whether rotational values are in degrees (yes) or radians (no).

endheader
time	pelvis_tilt	pelvis_list	pelvis_rotation	pelvis_tx	pelvis_ty	pelvis_tz	hip_flexion_r	hip_adduction_r	hip_rotation_r	knee_angle_r	knee_angle_r_beta	ankle_angle_r	subtalar_angle_r	mtp_angle_r	hip_flexion_l	hip_adduction_l	hip_rotation_l	knee_angle_l	knee_angle_l_beta	ankle_angle_l	subtalar_angle_l	mtp_angle_l	lumbar_extension	lumbar_bending	lumbar_rotation	arm_flex_r	arm_add_r	arm_rot_r	elbow_flex_r	pro_sup_r	arm_flex_l	arm_add_l	arm_rot_l	elbow_flex_l	pro_sup_l
      3.85000000	     14.12007251	     -1.74224216	     -7.59100394	     -0.09330595	      0.78162785	      0.09368561	     13.22379468	     13.37285859	      4.57762624	     62.46481827	      1.09021675	     14.57660597	    -12.93394510	     -7.49999987	     23.84434915	     -9.91858460	      5.52353217	      1.25880034	      0.02197021	    -15.54921865	      8.49491958	     -7.49999987	    -28.33420810	      4.83849790	     -0.91812991	     48.41667892	      9.16373920	     63.97324206	    133.79866712	    102.54865032	     54.94665851	     18.52334701	     76.16183228	    135.17073920	     74.17980255
      3.86666670	     14.07430778	     -1.97021484	     -7.83968902	     -0.09280067	      0.78410446	      0.09385420	     13.03996811	     13.27622064	      4.25664196	     62.07820273	      1.08346903	     13.14457813	    -13.28348087	     -7.49999987	     23.64204227	    -10.23523135	      5.70600090	      1.22083281	      0.02130755	    -14.78851875	      7.64228242	     -7.49999987	    -28.01302673	      5.09093781	     -0.53099572	     48.99614351	      9.18123457	     63.71162288	    133.51591671	    102.40748763	     55.43426988	     18.48279696	     75.87486820	    135.36706451	     73.78430551
      3.88333330	     13.86402170	     -1.75496399	     -7.95092549	     -0.09405588	      0.78325251	      0.09441954	     13.00337670	     12.80860514	      4.16567876	     61.49447070	      1.07328099	     14.38325957	    -12.25309007	     -7.49999987	     23.82965453	    -10.00314938	      5.69319728	      1.45999326	      0.02548169	    -13.77913593	      6.76568618	     -7.49999987	    -27.42341466	      4.91424934	     -0.33485262	     49.79810658	      9.51339078	     63.67690178	    133.49047458	    102.48904258	     55.92442207	     18.54916048	     75.37631321	    135.49140181	     73.35398288
      3.90000000	     13.60730543	     -1.49895687	     -8.12204814	     -0.09274532	      0.79083995	      0.09457679	     12.97175528	     12.35669514	      4.28904298	     60.97629153	      1.06423705	     13.81405013	    -11.36559635	     -7.49999987	     23.83030990	     -9.68098088	      5.72847821	      2.12467753	      0.03708262	    -13.17945448	      6.29628264	     -7.49999987	    -26.96904717	      4.63080772	     -0.08469564	     50.06959282	      9.78005015	     63.70569379	    133.65842935	    102.40139748	     56.36618589	     18.15628823	     74.69974422	    135.31321930	     73.28456863
      3.91666670	     13.68243798	     -1.43886834	     -8.07126266	     -0.09002638	      0.79692227	      0.09516419	     11.90231197	     11.93816241	      4.11046069	     59.46123707	      1.03779436	     13.37589346	    -10.28588164	     -7.49999987	     23.37161991	     -9.42707802	      5.45643140	      2.59069297	      0.04521612	    -13.31356130	      6.04315580	     -7.49999987	    -26.55213623	      4.69316956	      0.08415518	     50.12345298	      9.99904359	     64.25089921	    134.53792474	    103.36479985	     56.19584025	     18.11866291	     73.96437291	    135.22973159	     72.25682864
      3.93333330	     13.74608608	     -1.20289473	     -7.81593208	     -0.09010663	      0.80497360	      0.09399123	     11.25284577	     11.39321255	      4.02706599	     57.81286495	      1.00902484	     12.45984184	     -9.87403603	     -7.49999987	     23.05009922	     -8.76368693	      5.71325252	      3.20210521	      0.05588728	    -13.65158297	      6.29438484	     -7.49999987	    -26.18808033	      4.64631831	      0.34237287	     50.04101335	     10.18055525	     64.84437541	    134.91621976	    103.27060051	     55.82714478	     18.19130792	     73.87842962	    135.33529853	     72.21902886
      3.95000000	     14.10108580	     -0.64369656	     -7.47716200	     -0.08712847	      0.80947756	      0.09364818	      9.90291972	     10.51275715	      3.98615251	     56.02559480	      0.97783109	     11.17358281	     -9.71773135	     -7.49999987	     22.24373802	     -7.74479110	      5.41439446	      3.45257082	      0.06025873	    -14.20002749	      5.82665178	     -7.49999987	    -26.14722039	      4.23774780	      0.05023972	     49.97162755	     10.08985057	     63.92209075	    134.13948121	     99.46421141	     56.24909949	     16.77092322	     71.54294506	    134.53299476	     69.02192274
      3.96666670	     14.04749420	     -0.27488923	     -6.97715572	     -0.09327082	      0.81301133	      0.09425297	      9.86969498	     10.23373743	      3.97536063	     54.77392971	      0.95598542	     11.20850603	    -10.15970911	     -7.49999987	     22.52136868	     -6.98860406	      4.21156073	      3.82804561	      0.06681200	    -14.58372306	      5.28721943	     -7.49999987	    -25.87222807	      3.95215343	      0.39971254	     50.42964592	     10.10723543	     63.97277501	    133.91685527	     99.67433375	     56.09627451	     17.10726710	     71.82121826	    134.54031632	     69.12428623
      3.98333330	     14.07755877	      0.01931154	     -6.53976984	     -0.09264114	      0.82201758	      0.09471335	      8.91163120	     10.02585877	      4.02739687	     52.99479845	      0.92493372	     10.63291332	    -10.43041529	     -7.49999987	     22.51914984	     -6.36309217	      3.47002587	      3.68258000	      0.06427315	    -15.08915606	      5.21959657	     -7.49999987	    -25.47056390	      3.64495074	      0.60150229	     50.64207082	     10.07338972	     63.77467939	    133.74692472	     99.93771872	     56.29877263	     16.46187269	     70.70077363	    133.67003961	     69.10044095
